REM DIRINDEX 1\8,1\2\11,1\3\12,1\3\14,1\5\15,1\5\16,1\6\17,1\6\18,1\4\19,1\4\20,1\4\21,1\4\22,1\7\23,1\7\24,1\7\25,1\2\9\26,1\2\9\27,1\2\10\28,1\2\10\29,1\2\10\30,1\2\10\31,1\2\10\32,1\3\13\33,1\3\13\34,1\3\13\35
REM DIRNAME folder01,folder02,folder03,folder04,folder05,folder06,folder07,folder08,folder09,folder10,folder11,folder12,folder13,folder14,folder15,folder16,folder17,folder18,folder19,folder20,folder21,folder22,folder23,folder24,folder25,folder26,folder27,folder28,folder29,folder30,folder31,folder32,folder33,folder34,folder35
TITLE ""
FILE "160 160_—á•¶UNIT7_SET2.mp3" MP3
  TRACK 01 AUDIO
    TITLE "22:cjc123_4337"
    INDEX 01 00:00:00
  TRACK 02 AUDIO
    TITLE "0:"
    INDEX 01 00:02:45
  TRACK 03 AUDIO
    TITLE "19:cjc123_4338"
    INDEX 01 00:03:25
  TRACK 04 AUDIO
    TITLE "0:"
    INDEX 01 00:08:32
  TRACK 05 AUDIO
    TITLE "20:cjc123_4339"
    INDEX 01 00:08:64
  TRACK 06 AUDIO
    TITLE "0:"
    INDEX 01 00:13:08
  TRACK 07 AUDIO
    TITLE "21:cjc123_4340"
    INDEX 01 00:13:37
  TRACK 08 AUDIO
    TITLE "0:"
    INDEX 01 00:18:44
  TRACK 09 AUDIO
    TITLE "19:cjc123_4341"
    INDEX 01 00:19:32
  TRACK 10 AUDIO
    TITLE "0:"
    INDEX 01 00:22:44
  TRACK 11 AUDIO
    TITLE "20:cjc123_4342"
    INDEX 01 00:22:64
  TRACK 12 AUDIO
    TITLE "0:"
    INDEX 01 00:25:74
  TRACK 13 AUDIO
    TITLE "21:cjc123_4343"
    INDEX 01 00:26:17
  TRACK 14 AUDIO
    TITLE "0:"
    INDEX 01 00:29:33
  TRACK 15 AUDIO
    TITLE "19:cjc123_4344"
    INDEX 01 00:30:03
  TRACK 16 AUDIO
    TITLE "0:"
    INDEX 01 00:35:29
  TRACK 17 AUDIO
    TITLE "20:cjc123_4345"
    INDEX 01 00:35:68
  TRACK 18 AUDIO
    TITLE "0:"
    INDEX 01 00:41:02
  TRACK 19 AUDIO
    TITLE "21:cjc123_4346"
    INDEX 01 00:41:30
  TRACK 20 AUDIO
    TITLE "0:"
    INDEX 01 00:46:56
  TRACK 21 AUDIO
    TITLE "19:cjc123_4347"
    INDEX 01 00:47:46
  TRACK 22 AUDIO
    TITLE "0:"
    INDEX 01 00:51:32
  TRACK 23 AUDIO
    TITLE "20:cjc123_4348"
    INDEX 01 00:51:71
  TRACK 24 AUDIO
    TITLE "0:"
    INDEX 01 00:55:30
  TRACK 25 AUDIO
    TITLE "21:cjc123_4349"
    INDEX 01 00:55:63
  TRACK 26 AUDIO
    TITLE "0:"
    INDEX 01 00:59:51
  TRACK 27 AUDIO
    TITLE "19:cjc123_4350"
    INDEX 01 01:00:23
  TRACK 28 AUDIO
    TITLE "0:"
    INDEX 01 01:05:73
  TRACK 29 AUDIO
    TITLE "20:cjc123_4351"
    INDEX 01 01:06:36
  TRACK 30 AUDIO
    TITLE "0:"
    INDEX 01 01:12:03
  TRACK 31 AUDIO
    TITLE "21:cjc123_4352"
    INDEX 01 01:12:34
  TRACK 32 AUDIO
    TITLE "0:"
    INDEX 01 01:18:06
  TRACK 33 AUDIO
    TITLE "19:cjc123_4353"
    INDEX 01 01:18:56
  TRACK 34 AUDIO
    TITLE "0:"
    INDEX 01 01:22:44
  TRACK 35 AUDIO
    TITLE "20:cjc123_4354"
    INDEX 01 01:23:09
  TRACK 36 AUDIO
    TITLE "0:"
    INDEX 01 01:28:27
  TRACK 37 AUDIO
    TITLE "21:cjc123_4355"
    INDEX 01 01:28:67
  TRACK 38 AUDIO
    TITLE "0:"
    INDEX 01 01:32:53
  TRACK 39 AUDIO
    TITLE "19:cjc123_4356"
    INDEX 01 01:33:36
  TRACK 40 AUDIO
    TITLE "0:"
    INDEX 01 01:37:15
  TRACK 41 AUDIO
    TITLE "20:cjc123_4357"
    INDEX 01 01:37:58
  TRACK 42 AUDIO
    TITLE "0:"
    INDEX 01 01:41:54
  TRACK 43 AUDIO
    TITLE "21:cjc123_4358"
    INDEX 01 01:42:08
  TRACK 44 AUDIO
    TITLE "0:"
    INDEX 01 01:45:59
  TRACK 45 AUDIO
    TITLE "19:cjc123_4359"
    INDEX 01 01:46:41
  TRACK 46 AUDIO
    TITLE "0:"
    INDEX 01 01:50:39
  TRACK 47 AUDIO
    TITLE "20:cjc123_4360"
    INDEX 01 01:50:70
  TRACK 48 AUDIO
    TITLE "0:"
    INDEX 01 01:55:36
  TRACK 49 AUDIO
    TITLE "21:cjc123_4361"
    INDEX 01 01:55:65
  TRACK 50 AUDIO
    TITLE "0:"
    INDEX 01 01:59:65
  TRACK 51 AUDIO
    TITLE "19:cjc123_4362"
    INDEX 01 02:00:37
  TRACK 52 AUDIO
    TITLE "0:"
    INDEX 01 02:04:47
  TRACK 53 AUDIO
    TITLE "20:cjc123_4363"
    INDEX 01 02:05:05
  TRACK 54 AUDIO
    TITLE "0:"
    INDEX 01 02:09:11
  TRACK 55 AUDIO
    TITLE "21:cjc123_4364"
    INDEX 01 02:09:44
  TRACK 56 AUDIO
    TITLE "0:"
    INDEX 01 02:13:54
  TRACK 57 AUDIO
    TITLE "19:cjc123_4365"
    INDEX 01 02:14:30
  TRACK 58 AUDIO
    TITLE "0:"
    INDEX 01 02:19:09
  TRACK 59 AUDIO
    TITLE "20:cjc123_4366"
    INDEX 01 02:19:44
  TRACK 60 AUDIO
    TITLE "0:"
    INDEX 01 02:26:74
  TRACK 61 AUDIO
    TITLE "21:cjc123_4367"
    INDEX 01 02:27:30
  TRACK 62 AUDIO
    TITLE "0:"
    INDEX 01 02:32:08
  TRACK 63 AUDIO
    TITLE "19:cjc123_4368"
    INDEX 01 02:32:55
  TRACK 64 AUDIO
    TITLE "0:"
    INDEX 01 02:36:21
  TRACK 65 AUDIO
    TITLE "20:cjc123_4369"
    INDEX 01 02:36:66
  TRACK 66 AUDIO
    TITLE "0:"
    INDEX 01 02:41:19
  TRACK 67 AUDIO
    TITLE "21:cjc123_4370"
    INDEX 01 02:41:46
  TRACK 68 AUDIO
    TITLE "0:"
    INDEX 01 02:45:14
  TRACK 69 AUDIO
    TITLE "19:cjc123_4371"
    INDEX 01 02:45:65
  TRACK 70 AUDIO
    TITLE "0:"
    INDEX 01 02:52:05
  TRACK 71 AUDIO
    TITLE "20:cjc123_4372"
    INDEX 01 02:52:42
  TRACK 72 AUDIO
    TITLE "0:"
    INDEX 01 02:57:59
  TRACK 73 AUDIO
    TITLE "21:cjc123_4373"
    INDEX 01 02:58:17
  TRACK 74 AUDIO
    TITLE "0:"
    INDEX 01 03:04:33
  TRACK 75 AUDIO
    TITLE "19:cjc123_4374"
    INDEX 01 03:05:17
  TRACK 76 AUDIO
    TITLE "0:"
    INDEX 01 03:11:14
  TRACK 77 AUDIO
    TITLE "20:cjc123_4375"
    INDEX 01 03:11:43
  TRACK 78 AUDIO
    TITLE "0:"
    INDEX 01 03:17:38
  TRACK 79 AUDIO
    TITLE "21:cjc123_4376"
    INDEX 01 03:17:73
  TRACK 80 AUDIO
    TITLE "0:"
    INDEX 01 03:23:68
  TRACK 81 AUDIO
    TITLE "19:cjc123_4377"
    INDEX 01 03:24:42
  TRACK 82 AUDIO
    TITLE "0:"
    INDEX 01 03:28:44
  TRACK 83 AUDIO
    TITLE "20:cjc123_4378"
    INDEX 01 03:28:71
  TRACK 84 AUDIO
    TITLE "0:"
    INDEX 01 03:35:38
  TRACK 85 AUDIO
    TITLE "21:cjc123_4379"
    INDEX 01 03:35:71
  TRACK 86 AUDIO
    TITLE "0:"
    INDEX 01 03:39:71
  TRACK 87 AUDIO
    TITLE "19:cjc123_4380"
    INDEX 01 03:40:39
  TRACK 88 AUDIO
    TITLE "0:"
    INDEX 01 03:44:29
  TRACK 89 AUDIO
    TITLE "20:cjc123_4381"
    INDEX 01 03:44:64
  TRACK 90 AUDIO
    TITLE "0:"
    INDEX 01 03:50:08
  TRACK 91 AUDIO
    TITLE "21:cjc123_4382"
    INDEX 01 03:50:37
  TRACK 92 AUDIO
    TITLE "0:"
    INDEX 01 03:54:27
